<svg width="21" height="24" viewBox="0 0 21 24" fill="none" xmlns="http://www.w3.org/2000/svg">
<path d="M15.6923 5V0L20.3076 6H16.6923C16.14 6 15.6923 5.55228 15.6923 5Z" fill="#5F32FF"/>
<path d="M1.5 0H14.3077V5.88462C14.3077 6.71304 14.9793 7.38462 15.8077 7.38462H20.3077V22.5C20.3077 23.3284 19.6361 24 18.8077 24H1.5C0.671574 24 0 23.3284 0 22.5V1.5C0 0.671573 0.671574 0 1.5 0Z" fill="url(#paint0_linear_16139_22050)"/>
<path d="M5.53845 10.1538L14.7692 10.1538" stroke="#DAD1FF" stroke-width="1.5" stroke-linecap="round"/>
<path d="M5.53845 14.7693L14.7692 14.7693" stroke="#DAD1FF" stroke-width="1.5" stroke-linecap="round"/>
<path d="M5.53845 19.3846L14.7692 19.3846" stroke="#DAD1FF" stroke-width="1.5" stroke-linecap="round"/>
<defs>
<linearGradient id="paint0_linear_16139_22050" x1="10.1538" y1="0" x2="10.1538" y2="24" gradientUnits="userSpaceOnUse">
<stop stop-color="#BA8DE0"/>
<stop offset="1" stop-color="#776AF1"/>
</linearGradient>
</defs>
</svg>
