<svg width="24" height="24" viewBox="0 0 24 24" fill="none" xmlns="http://www.w3.org/2000/svg">
<path d="M0 10.6155H7.38462V22.6155H0L0 10.6155Z" fill="url(#paint0_linear_16139_15306)"/>
<ellipse cx="3.69231" cy="10.6156" rx="3.69231" ry="1.38462" fill="url(#paint1_linear_16139_15306)"/>
<ellipse cx="3.69231" cy="22.6156" rx="3.69231" ry="1.38462" fill="url(#paint2_linear_16139_15306)"/>
<path d="M16.6155 7.84668H24.0002V22.6159H16.6155L16.6155 7.84668Z" fill="url(#paint3_linear_16139_15306)"/>
<ellipse cx="20.3078" cy="7.84677" rx="3.69231" ry="1.38462" fill="url(#paint4_linear_16139_15306)"/>
<ellipse cx="20.3078" cy="22.6161" rx="3.69231" ry="1.38462" fill="url(#paint5_linear_16139_15306)"/>
<path d="M8.30679 1.38452H15.6914V22.6153H8.30679L8.30679 1.38452Z" fill="url(#paint6_linear_16139_15306)"/>
<ellipse cx="11.9991" cy="1.38462" rx="3.69231" ry="1.38462" fill="url(#paint7_linear_16139_15306)"/>
<ellipse cx="11.9991" cy="22.6153" rx="3.69231" ry="1.38462" fill="url(#paint8_linear_16139_15306)"/>
<defs>
<linearGradient id="paint0_linear_16139_15306" x1="3.69231" y1="10.1539" x2="3.69231" y2="23.077" gradientUnits="userSpaceOnUse">
<stop stop-color="#A1DAFF"/>
<stop offset="1" stop-color="#8F9AFF"/>
</linearGradient>
<linearGradient id="paint1_linear_16139_15306" x1="3.69231" y1="9.23096" x2="3.69231" y2="12.0002" gradientUnits="userSpaceOnUse">
<stop stop-color="#AFF2FF"/>
<stop offset="1" stop-color="#AAE5FF"/>
</linearGradient>
<linearGradient id="paint2_linear_16139_15306" x1="3.69231" y1="21.6925" x2="3.69231" y2="24.0002" gradientUnits="userSpaceOnUse">
<stop stop-color="#A6BAFB"/>
<stop offset="1" stop-color="#656BFD"/>
</linearGradient>
<linearGradient id="paint3_linear_16139_15306" x1="20.3078" y1="7.74017" x2="20.3078" y2="23.6455" gradientUnits="userSpaceOnUse">
<stop stop-color="#9D79FF"/>
<stop offset="1" stop-color="#794AFF"/>
</linearGradient>
<linearGradient id="paint4_linear_16139_15306" x1="20.3078" y1="6.46216" x2="20.3078" y2="9.23139" gradientUnits="userSpaceOnUse">
<stop stop-color="#C2B2FB"/>
<stop offset="1" stop-color="#BA9BFF"/>
</linearGradient>
<linearGradient id="paint5_linear_16139_15306" x1="20.3078" y1="21.693" x2="20.3078" y2="24.0007" gradientUnits="userSpaceOnUse">
<stop stop-color="#9068FF"/>
<stop offset="1" stop-color="#7550FE"/>
</linearGradient>
<linearGradient id="paint6_linear_16139_15306" x1="11.9991" y1="1.06499" x2="11.9991" y2="22.9348" gradientUnits="userSpaceOnUse">
<stop stop-color="#C1B2FF"/>
<stop offset="1" stop-color="#6C7AFF"/>
</linearGradient>
<linearGradient id="paint7_linear_16139_15306" x1="11.9991" y1="0" x2="11.9991" y2="2.76923" gradientUnits="userSpaceOnUse">
<stop stop-color="#D2C7FF"/>
<stop offset="1" stop-color="#A996F5"/>
</linearGradient>
<linearGradient id="paint8_linear_16139_15306" x1="11.9991" y1="21.6923" x2="11.9991" y2="23.9999" gradientUnits="userSpaceOnUse">
<stop stop-color="#8F97FF"/>
<stop offset="1" stop-color="#656BFD"/>
</linearGradient>
</defs>
</svg>
