<svg width="24" height="24" viewBox="0 0 24 24" fill="none" xmlns="http://www.w3.org/2000/svg">
<path d="M3.42857 0H20.1429L24 8.57143H0L3.42857 0Z" fill="url(#paint0_linear_16139_10449)"/>
<rect x="2.57153" y="8.57153" width="18.8571" height="12.8571" fill="url(#paint1_linear_16139_10449)"/>
<path fill-rule="evenodd" clip-rule="evenodd" d="M0 8.57153C0 11.1752 1.7269 13.2858 3.85714 13.2858C5.98738 13.2858 7.71429 11.1752 7.71429 8.57153C7.71429 11.1752 9.63307 13.2858 12 13.2858C14.3669 13.2858 16.2857 11.1752 16.2857 8.57153C16.2857 11.1752 18.0126 13.2858 20.1429 13.2858C22.2731 13.2858 24 11.1752 24 8.57153H16.2857H7.71429H0Z" fill="url(#paint2_linear_16139_10449)"/>
<path d="M9.42847 21.4286V18.4286C9.42847 17.0084 10.5797 15.8572 11.9999 15.8572V15.8572C13.4201 15.8572 14.5713 17.0084 14.5713 18.4286V21.4286" stroke="white"/>
<path fill-rule="evenodd" clip-rule="evenodd" d="M21.4284 22.2435C22.4065 22.045 23.1426 21.1802 23.1426 20.1435C23.1426 18.9601 22.131 16.2864 20.9998 16.2864C19.8686 16.2864 18.8569 18.9601 18.8569 20.1435C18.8569 21.1802 19.5931 22.045 20.5712 22.2435V24.0007H21.4284V22.2435Z" fill="url(#paint3_linear_16139_10449)"/>
<path fill-rule="evenodd" clip-rule="evenodd" d="M3.26207 21.5533C4.07131 21.3336 4.66646 20.5938 4.66646 19.7149C4.66646 18.663 3.7672 16.2864 2.7617 16.2864C1.75619 16.2864 0.856934 18.663 0.856934 19.7149C0.856934 20.6782 1.57194 21.4744 2.50016 21.6019V23.2869H3.26207V21.5533Z" fill="url(#paint4_linear_16139_10449)"/>
<defs>
<linearGradient id="paint0_linear_16139_10449" x1="12" y1="0" x2="12" y2="8.57143" gradientUnits="userSpaceOnUse">
<stop stop-color="#6549D9"/>
<stop offset="1" stop-color="#8761FB"/>
</linearGradient>
<linearGradient id="paint1_linear_16139_10449" x1="12.0001" y1="8.57153" x2="12.0001" y2="21.4287" gradientUnits="userSpaceOnUse">
<stop stop-color="#7754FF"/>
<stop offset="1" stop-color="#5E31FF"/>
</linearGradient>
<linearGradient id="paint2_linear_16139_10449" x1="12" y1="8.57153" x2="12" y2="13.2858" gradientUnits="userSpaceOnUse">
<stop offset="0.1875" stop-color="#AE6EFE"/>
<stop offset="0.78125" stop-color="#E3BDBC"/>
</linearGradient>
<linearGradient id="paint3_linear_16139_10449" x1="20.9998" y1="16.2864" x2="20.9998" y2="24.0007" gradientUnits="userSpaceOnUse">
<stop offset="0.11284" stop-color="#AAC9A5"/>
<stop offset="0.337853" stop-color="#69C6C4"/>
<stop offset="1" stop-color="#5CA9C5"/>
</linearGradient>
<linearGradient id="paint4_linear_16139_10449" x1="3.61884" y1="16.2864" x2="3.61884" y2="23.1424" gradientUnits="userSpaceOnUse">
<stop offset="0.11284" stop-color="#AAC9A5"/>
<stop offset="0.337853" stop-color="#69C6C4"/>
<stop offset="1" stop-color="#5CA9C5"/>
</linearGradient>
</defs>
</svg>
